<svg width="32" height="32" viewBox="0 0 32 32" fill="none" xmlns="http://www.w3.org/2000/svg">
<path d="M0.950873 5.46512L1.05022 26.6758C1.06157 29.0987 3.04237 31.0611 5.46528 31.0497L26.676 30.9504C29.0989 30.939 31.0612 28.9582 31.0499 26.5353L31.0084 17.6878L20.4031 17.7374L20.4196 21.253L15.1462 21.2777L15.1297 17.7621L11.5555 17.7789C8.64763 17.7925 6.27108 15.4381 6.25746 12.5302L6.23249 7.19822L11.5059 7.17352L11.5308 12.5055L15.105 12.4888L15.08 7.15678L20.3575 8.01098L20.3784 12.4641L30.9838 12.4144L30.9505 5.32461C30.9392 2.9017 28.9584 0.939366 26.5355 0.950714L5.32477 1.05006C2.90186 1.06141 0.939525 3.04221 0.950873 5.46512Z" fill="black"/>
</svg>
