<svg width="32" height="32" viewBox="0 0 32 32" fill="none" xmlns="http://www.w3.org/2000/svg">
<path d="M10.5121 31.0506L21.7616 30.9479C26.9383 30.9006 31.0979 26.6644 31.0506 21.4877L30.9479 10.2382C30.9007 5.06151 26.6644 0.901881 21.4878 0.949141L10.2382 1.05184C5.06156 1.0991 0.901937 5.33538 0.949197 10.512L1.0519 21.7616C1.09916 26.9382 5.33543 31.0978 10.5121 31.0506ZM3.76158 10.4864C3.72854 6.86776 6.6453 3.89726 10.2639 3.86422L21.5134 3.76152C25.132 3.72849 28.1025 6.64524 28.1356 10.2638L28.2383 21.5134C28.2713 25.132 25.3545 28.1025 21.7359 28.1355L10.4864 28.2382C6.86782 28.2712 3.89732 25.3545 3.86428 21.7359L3.76158 10.4864Z" fill="black"/>
<path d="M16.0682 23.4991C20.2099 23.4613 23.5372 20.0727 23.4994 15.931C23.4616 11.7893 20.073 8.46195 15.9312 8.49976C11.7895 8.53757 8.46222 11.9262 8.50003 16.0679C8.53784 20.2096 11.9265 23.5369 16.0682 23.4991ZM15.9569 11.3121C18.5406 11.2886 20.6634 13.373 20.687 15.9567C20.7106 18.5422 18.6262 20.6632 16.0425 20.6867C13.4589 20.7103 11.336 18.6278 11.3124 16.0422C11.2888 13.4586 13.3733 11.3357 15.9569 11.3121Z" fill="black"/>
<path d="M8.00195 23.1364C7.45004 23.1415 7.0067 23.593 7.01174 24.1449C7.01678 24.6968 7.46828 25.1401 8.0202 25.1351C8.57211 25.1301 9.01545 24.6786 9.01041 24.1266C9.00537 23.5747 8.55387 23.1314 8.00195 23.1364Z" fill="black"/>
</svg>
