<svg width="32" height="32" viewBox="0 0 32 32" fill="none" xmlns="http://www.w3.org/2000/svg">
<path d="M31.0001 15.9787C30.9883 7.6925 24.265 0.988324 15.9787 1.00013C7.69247 1.01195 0.988293 7.73526 1.0001 16.0215C1.01191 24.3077 7.73523 31.0119 16.0215 31.0001C24.3077 30.9883 31.0119 24.265 31.0001 15.9787ZM15.6867 24.1368L10.0898 9.68229C9.84637 9.01138 10.2518 8.42456 11.2671 8.64061L11.2658 8.63936L22.8706 11.0853C23.6934 11.2666 23.894 11.7551 23.5075 12.4394L20.7491 16.1934L22.4942 17.9996C22.6945 18.1993 22.8635 18.3678 22.864 18.7553L19.0474 18.4945L12.7587 11.5535C12.4921 11.2514 12.3426 11.6216 12.6082 12.0199L18.0279 20.601L16.8782 24.3051C16.6243 25.1092 16.0756 25.1275 15.6867 24.1368Z" fill="black"/>
</svg>
